HIERARCHY
ROOT Hips
{
    OFFSET 0.000000 0.000000 0.000000
    CHANNELS 6 Xposition Yposition Zposition Zrotation Xrotation Yrotation
    JOINT Spine
    {
        OFFSET -0.000000 14.517291 0.000000
        CHANNELS 3 Zrotation Xrotation Yrotation
        JOINT Spine1
        {
            OFFSET -0.000000 37.558300 0.000000
            CHANNELS 3 Zrotation Xrotation Yrotation
            JOINT Neck
            {
                OFFSET -0.000000 37.404057 3.400369
                CHANNELS 3 Zrotation Xrotation Yrotation
                JOINT Head
                {
                    OFFSET -0.000000 24.785618 -3.540803
                    CHANNELS 3 Zrotation Xrotation Yrotation
                    End Site
                    {
                        OFFSET -0.000000 35.408028 0.000000
                    }
                }
            }
            JOINT LeftShoulder
            {
                OFFSET 6.992933 33.973492 -0.192664
                CHANNELS 3 Zrotation Xrotation Yrotation
                JOINT LeftArm
                {
                    OFFSET 21.527611 0.000000 0.000000
                    CHANNELS 3 Zrotation Xrotation Yrotation
                    JOINT LeftForeArm
                    {
                        OFFSET 56.353916 0.000000 0.000000
                        CHANNELS 3 Zrotation Xrotation Yrotation
                        JOINT LeftHand
                        {
                            OFFSET 47.774071 0.000000 0.000000
                            CHANNELS 3 Zrotation Xrotation Yrotation
                            End Site
                            {
                                OFFSET 26.556021 0.000000 0.000000
                            }
                        }
                    }
                }
            }
            JOINT RightShoulder
            {
                OFFSET -7.065357 33.973492 -0.192664
                CHANNELS 3 Zrotation Xrotation Yrotation
                JOINT RightArm
                {
                    OFFSET -21.527611 0.000000 0.000000
                    CHANNELS 3 Zrotation Xrotation Yrotation
                    JOINT RightForeArm
                    {
                        OFFSET -56.353916 0.000000 0.000000
                        CHANNELS 3 Zrotation Xrotation Yrotation
                        JOINT RightHand
                        {
                            OFFSET -47.774071 0.000000 0.000000
                            CHANNELS 3 Zrotation Xrotation Yrotation
                            End Site
                            {
                                OFFSET -26.556021 0.000000 0.000000
                            }
                        }
                    }
                }
            }
        }
    }
    JOINT LeftUpLeg
    {
        OFFSET 17.704014 0.000000 0.000000
        CHANNELS 3 Zrotation Xrotation Yrotation
        JOINT LeftLeg
        {
            OFFSET -0.000000 -81.181816 0.000000
            CHANNELS 3 Zrotation Xrotation Yrotation
            JOINT LeftFoot
            {
                OFFSET -0.000000 -62.821102 0.000000
                CHANNELS 3 Zrotation Xrotation Yrotation
                JOINT LeftToeBase
                {
                    OFFSET -0.000000 -11.507608 26.556021
                    CHANNELS 3 Zrotation Xrotation Yrotation
                    End Site
                    {
                        OFFSET -0.000000 0.000000 7.081605
                    }
                }
            }
        }
    }
    JOINT RightUpLeg
    {
        OFFSET -17.704014 0.000000 0.000000
        CHANNELS 3 Zrotation Xrotation Yrotation
        JOINT RightLeg
        {
            OFFSET -0.000000 -81.181816 0.000000
            CHANNELS 3 Zrotation Xrotation Yrotation
            JOINT RightFoot
            {
                OFFSET -0.000000 -62.821102 0.000000
                CHANNELS 3 Zrotation Xrotation Yrotation
                JOINT RightToeBase
                {
                    OFFSET -0.000000 -11.507608 26.556021
                    CHANNELS 3 Zrotation Xrotation Yrotation
                    End Site
                    {
                        OFFSET -0.000000 0.000000 7.081605
                    }
                }
            }
        }
    }
}
MOTION
Frames:    4
Frame Time:    0.008333
20.960539    144.158859    35.455536    4.389349    1.887446    -38.859642    0.926319    2.118571    4.475467    -0.407489    -1.130975    1.492995    14.899745    4.607743    13.259284    -11.993255    0.903900    10.598849    11.974455    1.260635    -13.933919    -3.948296    -9.774872    -18.725266    11.170929    1.290110    -54.519928    -25.019884    13.305724    -28.049990    -11.144081    -3.642761    -4.252650    30.505671    -28.340137    42.238335    8.515985    -32.970798    98.638733    28.012074    -32.843601    38.834949    28.524685    -36.199017    8.318727    -24.154202    35.700184    -2.427452    -8.597203    -5.130044    41.659817    0.000000    0.000000    0.000000    -27.773075    -6.828559    -21.924074    4.448947    46.052170    -8.521984    17.521769    -27.127062    1.175946    0.000000    0.000000    0.000000    
21.117493    144.215851    35.566322    4.416816    1.887360    -39.639843    0.904999    2.104730    4.367795    -0.410169    -1.101908    1.457000    14.942602    4.597312    13.291849    -11.952441    0.954290    10.637438    12.012104    1.255075    -13.928339    -3.959132    -9.807535    -18.554493    12.039185    1.611623    -53.646217    -25.621775    14.588943    -30.124731    -11.194479    -3.823600    -4.313066    30.624323    -28.221367    42.201389    8.597054    -32.781021    98.621582    27.962898    -32.759014    38.783947    28.840889    -35.873817    8.572016    -24.399414    35.731297    -2.020917    -8.518065    -5.394885    41.791046    0.000000    0.000000    0.000000    -27.965401    -7.175148    -21.711555    4.525499    45.911263    -8.416205    17.617216    -26.774353    1.468511    0.000000    0.000000    0.000000    
21.288372    144.276230    35.640190    4.473968    1.921122    -40.430119    0.843306    2.097678    4.280818    -0.355726    -1.162975    1.427940    14.949412    4.676384    13.293007    -11.918744    0.941416    10.651829    11.995809    1.275887    -13.970629    -3.901278    -9.749214    -18.488621    12.491419    1.992755    -53.263714    -26.093733    15.194190    -29.849497    -11.188714    -3.726116    -4.227414    30.625240    -28.297251    42.126270    8.732822    -32.810429    98.740265    28.086250    -32.906860    38.762871    29.172585    -35.598473    9.058550    -24.502052    35.832409    -1.787392    -8.470496    -5.606316    41.915695    0.000000    0.000000    0.000000    -28.147377    -7.599100    -21.490204    4.613562    45.790062    -8.388722    17.699457    -26.413372    1.798412    0.000000    0.000000    0.000000    
21.442110    144.328125    35.743870    4.513143    1.922223    -41.196907    0.799152    2.120105    4.185240    -0.361163    -1.213889    1.395627    15.016168    4.622481    13.317590    -11.850342    1.073683    10.685564    12.052761    1.321240    -13.948916    -3.891343    -9.789509    -18.514078    12.509000    2.088877    -53.014702    -26.489914    15.247878    -29.346331    -11.123275    -3.708700    -4.251136    30.597929    -28.300087    42.095604    8.694500    -32.732193    98.725655    27.953110    -32.854454    38.662018    29.461580    -35.289352    9.461790    -24.624784    35.931232    -1.495001    -8.395339    -5.833416    41.982758    0.000000    0.000000    0.000000    -28.340265    -7.971035    -21.251925    4.749413    45.682098    -8.269116    17.736134    -26.100927    1.957947    0.000000    0.000000    0.000000    
